<svg id="visual" viewBox="0 0 1920 1080" width="1920" height="1080" xmlns="http://www.w3.org/2000/svg" xmlns:xlink="http://www.w3.org/1999/xlink" version="1.1"><rect x="0" y="0" width="1920" height="1080" fill="#222222"></rect><g fill="none" stroke="#ba7b1e" stroke-width="4"><path d="M0 -245.4L55.1 -75.8L233.4 -75.8L89.1 29L144.2 198.5L0 93.7L-144.2 198.5L-89.1 29L-233.4 -75.8L-55.1 -75.8Z" transform="translate(1476 173)"></path><path d="M0 -137.8L30.9 -42.6L131.1 -42.6L50.1 16.3L81 111.5L0 52.6L-81 111.5L-50.1 16.3L-131.1 -42.6L-30.9 -42.6Z" transform="translate(1663 841)"></path><path d="M0 -146.3L32.8 -45.2L139.1 -45.2L53.1 17.3L86 118.4L0 55.9L-86 118.4L-53.1 17.3L-139.1 -45.2L-32.8 -45.2Z" transform="translate(606 115)"></path><path d="M0 -181.2L40.7 -56L172.3 -56L65.8 21.4L106.5 146.6L0 69.2L-106.5 146.6L-65.8 21.4L-172.3 -56L-40.7 -56Z" transform="translate(318 782)"></path></g></svg>